<svg width="22" height="21" viewBox="0 0 22 21" fill="none" xmlns="http://www.w3.org/2000/svg">
<path d="M14.7075 10.1863C16.0279 10.1863 16.9192 11.1054 16.9192 12.4671C16.9192 13.6926 15.8958 14.7138 14.5094 14.7138C12.991 14.7138 11.8686 13.4883 11.8686 11.6161C11.8686 7.36087 14.9716 5.6588 16.9192 5.45455L16.9192 7.32683C15.5988 7.56512 14.1133 8.89274 14.0473 10.3565C14.1133 10.3225 14.3774 10.1863 14.7075 10.1863Z" fill="#79819A"/>
<path d="M7.97349 10.1863C9.29388 10.1863 10.1851 11.1054 10.1851 12.4671C10.1851 13.6926 9.16184 14.7138 7.77543 14.7138C6.25698 14.7138 5.13464 13.4883 5.13464 11.616C5.13464 7.36087 8.23757 5.6588 10.1851 5.45455V7.32683C8.86475 7.56512 7.37931 8.89274 7.31329 10.3565C7.37931 10.3225 7.64339 10.1863 7.97349 10.1863Z" fill="#79819A"/>
</svg>
